<svg xmlns="http://www.w3.org/2000/svg" viewBox="0 0 512 512" width="512" height="512">
  <!--
    CosmoShare Logo
    Planet body: #00867c (Deep Teal)
    Orbital ring: #00867c at 60% opacity (filled perspective band)
    Upload icon: #FFFFFF (White)
  -->

  <!-- Back half of orbital ring (behind the planet) -->
  <!-- Drawn as a filled band between an outer ellipse (rx=245 ry=70) and inner ellipse (rx=213 ry=56) -->
  <!-- The bottom semicircle of both ellipses forms the "back" portion -->
  <g transform="rotate(-30, 256, 256)">
    <path
      d="M 11,256
         A 245,70 0 0,0 501,256
         L 469,256
         A 213,56 0 0,1 43,256
         Z"
      fill="#00867c"
      fill-opacity="0.6"
    />
  </g>

  <!-- Planet body -->
  <circle cx="256" cy="256" r="150" fill="#00867c" />

  <!-- Front half of orbital ring (in front of planet) -->
  <!-- The top semicircle of both ellipses forms the "front" portion -->
  <g transform="rotate(-30, 256, 256)">
    <path
      d="M 501,256
         A 245,70 0 0,0 11,256
         L 43,256
         A 213,56 0 0,1 469,256
         Z"
      fill="#00867c"
      fill-opacity="0.6"
    />
  </g>

  <!-- Upload icon (centered on planet) -->
  <g transform="translate(172, 172) scale(7)">
    <path
      d="M16.19 2H7.81C4.17 2 2 4.17 2 7.81V16.18C2 19.83 4.17 22 7.81 22H16.18C19.82 22 21.99 19.83 21.99 16.19V7.81C22 4.17 19.83 2 16.19 2ZM8.47 8.98L11.47 5.98C11.54 5.91 11.62 5.86 11.71 5.82C11.89 5.74 12.1 5.74 12.28 5.82C12.37 5.86 12.45 5.91 12.52 5.98L15.52 8.98C15.81 9.27 15.81 9.75 15.52 10.04C15.37 10.19 15.18 10.26 14.99 10.26C14.8 10.26 14.61 10.19 14.46 10.04L12.74 8.32V14.51C12.74 14.92 12.4 15.26 11.99 15.26C11.58 15.26 11.24 14.92 11.24 14.51V8.32L9.52 10.04C9.23 10.33 8.75 10.33 8.46 10.04C8.17 9.75 8.18 9.28 8.47 8.98ZM18.24 17.22C16.23 17.89 14.12 18.23 12 18.23C9.88 18.23 7.77 17.89 5.76 17.22C5.37 17.09 5.16 16.66 5.29 16.27C5.42 15.88 5.85 15.66 6.24 15.8C9.96 17.04 14.05 17.04 17.77 15.8C18.16 15.67 18.59 15.88 18.72 16.27C18.84 16.67 18.63 17.09 18.24 17.22Z"
      fill="#ffffff"
    />
  </g>
</svg>
